<svg width="61" height="47" viewBox="0 0 61 47" fill="none" xmlns="http://www.w3.org/2000/svg">
<mask id="mask0_1389_794" style="mask-type:luminance" maskUnits="userSpaceOnUse" x="0" y="0" width="61" height="47">
<path d="M60.9948 0.460938H0V46.4609H60.9948V0.460938Z" fill="white"/>
</mask>
<g mask="url(#mask0_1389_794)">
<path d="M32.0714 0.460938V28.732H29.8206C28.607 21.5975 22.4355 16.1485 15.0244 16.1485C6.73686 16.1432 0 22.9427 0 31.3021C0 39.6614 6.73686 46.4609 15.0192 46.4609C19.0022 46.4609 22.757 44.8959 25.5939 42.0588L26.5118 41.1375L22.923 37.4892L22.005 38.4052C20.1328 40.2843 17.6486 41.3155 15.0192 41.3155C9.54778 41.3155 5.09803 36.8244 5.09803 31.3021C5.09803 25.7798 9.54778 21.2887 15.0192 21.2887C19.609 21.2887 23.4831 24.4502 24.6085 28.732H13.7279V33.8774H32.0714V46.4243H37.1694V33.8774H60.9689L32.0714 0.460938ZM49.7511 28.732H37.1643V14.1803L49.7511 28.732Z" fill="black"/>
<path d="M59.8537 34.5113C59.3195 34.5113 58.8839 34.951 58.8839 35.4902C58.8839 36.0293 59.3195 36.4638 59.8537 36.4638C60.3878 36.4638 60.8183 36.0241 60.8183 35.4902C60.8183 34.9563 60.3827 34.5113 59.8537 34.5113ZM59.8537 36.6417C59.221 36.6417 58.7075 36.1235 58.7075 35.4849C58.7075 34.8463 59.221 34.3281 59.8537 34.3281C60.4864 34.3281 60.9998 34.8463 60.9998 35.4849C60.9998 36.1235 60.4864 36.6417 59.8537 36.6417Z" fill="black"/>
<path d="M59.89 35.133H59.6307V35.4784H59.8952C60.0249 35.4784 60.1027 35.4104 60.1027 35.3057C60.1027 35.1905 60.0249 35.133 59.89 35.133ZM60.1027 36.0019L59.8537 35.6407H59.6307V36.0019H59.4492V34.9707H59.9056C60.139 34.9707 60.2842 35.0963 60.2842 35.2952C60.2842 35.468 60.1857 35.5674 60.0404 35.6093L60.3153 35.9966H60.1027V36.0019Z" fill="black"/>
</g>
</svg>
